<?xml version="1.0" encoding="UTF-8"?><!DOCTYPE svg PUBLIC "-//W3C//DTD SVG 1.1//EN" "http://www.w3.org/Graphics/SVG/1.1/DTD/svg11.dtd"><svg xmlns="http://www.w3.org/2000/svg" xmlns:xlink="http://www.w3.org/1999/xlink"><symbol id="icon-facebook" viewBox="0 0 10 19">
    <title>
        facebook
    </title>
    <path d="M9.766.157v2.946H8.014c-.64 0-1.071.134-1.295.402-.223.268-.335.67-.335 1.205v2.11h3.27l-.435 3.303H6.384v8.471H2.97v-8.47H.123V6.82H2.97V4.387c0-1.384.387-2.457 1.161-3.22C4.904.404 5.934.023 7.222.023c1.093 0 1.941.045 2.544.134z" fill-rule="evenodd"/>
</symbol><symbol id="icon-instagram" viewBox="0 0 24 24">
    <path d="M16.5 0h-9A7.5 7.5 0 0 0 0 7.5v9A7.5 7.5 0 0 0 7.5 24h9a7.5 7.5 0 0 0 7.5-7.5v-9A7.5 7.5 0 0 0 16.5 0zm5.25 16.5a5.256 5.256 0 0 1-5.25 5.25h-9a5.256 5.256 0 0 1-5.25-5.25v-9A5.256 5.256 0 0 1 7.5 2.25h9a5.256 5.256 0 0 1 5.25 5.25v9z"/>
    <path d="M12 6a6 6 0 1 0 0 12 6 6 0 0 0 0-12zm0 9.75A3.755 3.755 0 0 1 8.25 12 3.754 3.754 0 0 1 12 8.25 3.754 3.754 0 0 1 15.75 12 3.755 3.755 0 0 1 12 15.75z"/>
    <path d="M18.448 6.35a.8.8 0 1 0 0-1.599.8.8 0 0 0 0 1.599z"/>
</symbol><symbol id="icon-logo" viewBox="0 0 189 56">
    <path d="M39.455 54.094l-1.93-40.464c-.035-.743.442-1.37 1.045-1.37h3.858c.603 0 1.08.627 1.045 1.37l-1.93 40.464c-.075 1.624-2.011 1.624-2.088 0z"/>
    <path d="M40.5 10.005c2.655 0 4.807-2.167 4.807-4.839 0-2.672-2.152-4.838-4.808-4.838-2.655 0-4.807 2.166-4.807 4.838s2.152 4.839 4.807 4.839z"/>
    <path d="M43.584 13.81h-6.169a1.15 1.15 0 0 1-1.145-1.153 1.15 1.15 0 0 1 1.145-1.153h6.169a1.15 1.15 0 0 1 1.145 1.153 1.15 1.15 0 0 1-1.145 1.153z"/>
    <path d="M80.53 24.61L51.98 13.376a.733.733 0 0 0-.78.15c-2.787 2.686-6.946 3.505-10.074 3.705-.209.013-.418.02-.626.02v8.767c2.005 0 4.011.608 5.732 1.822 1.332.94 2.622 1.904 3.758 2.78a10.653 10.653 0 0 0 9.358 1.83.747.747 0 0 0 .217-1.337l-8.472-5.48c-.771-.522-.079-1.707.75-1.283l10.972 6.63c.163.083.351.104.527.056l5.776-1.55c.658-.177.751-1.078.143-1.386L54.96 21.853c-.838-.425-.28-1.698.597-1.362l17.904 7.494a.735.735 0 0 0 .536-.003l6.534-1.984c.625-.25.625-1.14 0-1.389z"/>
    <path d="M39.873 17.232c-3.128-.2-7.287-1.019-10.074-3.704a.733.733 0 0 0-.779-.15L.47 24.608c-.626.248-.626 1.14-.002 1.387l6.534 1.984c.172.069.363.07.536.004l17.904-7.495c.876-.336 1.434.938.597 1.363l-14.3 6.247c-.609.309-.516 1.21.142 1.386l5.776 1.55a.739.739 0 0 0 .527-.056l10.973-6.63c.828-.424 1.521.761.75 1.284l-8.473 5.48a.747.747 0 0 0 .217 1.337c3.233.897 6.697.221 9.359-1.83a111.646 111.646 0 0 1 3.757-2.78 9.933 9.933 0 0 1 5.732-1.822V17.25c-.208 0-.417-.006-.626-.019z"/>
    <path d="M38.442 32.866c-1.274-.134-2.483-.267-3.665-.52-2.162-.463-3.796-1.322-4.483-2.357-1.003-1.512.124-3.46 1.756-4.603.46-.322.573-.956.253-1.42a1.01 1.01 0 0 0-1.41-.254c-2.85 1.995-3.81 5.11-2.285 7.41 1.272 1.917 3.827 2.809 5.747 3.22.103.022.206.041.308.062 1.138-.574 2.469-.823 3.803-1.02l-.024-.518z"/>
    <path d="M42.041 43.684c.957.286 1.588.682 1.791 1.148.144.33-.03.743-.43 1.028-.376.268-.932.417-1.485.423l-.097 2.042h.074c.976 0 1.947-.279 2.679-.8 1.189-.845 1.648-2.29 1.115-3.511a3.326 3.326 0 0 0-1.034-1.298 16.23 16.23 0 0 1-2.589.476l-.023.492z"/>
    <path d="M47.47 35.151a5.579 5.579 0 0 0-1.135-.747c-1.24.245-2.507.38-3.734.509l-.142.015-.024.504c1.49.226 2.845.519 3.72 1.271.52.448.822 1.046.825 1.641.002.502-.208.951-.607 1.302-.84.738-2.254 1.236-4.209 1.481-.28.036-.57.065-.87.09-.274.022-.538.05-.794.082a14.08 14.08 0 0 0-1.641.297c-1.054.263-1.893.636-2.512 1.12-.474.368-.819.801-1.035 1.298-.531 1.222-.072 2.666 1.116 3.512.731.52 1.703.8 2.678.8l.075-.001-.097-2.042c-.553-.005-1.109-.155-1.485-.423-.401-.285-.573-.699-.43-1.029.203-.465.835-.86 1.791-1.147.447-.134.964-.244 1.542-.327.304-.044.623-.08.959-.108.207-.016.408-.037.606-.058a16.206 16.206 0 0 0 2.589-.476c1.278-.356 2.29-.863 3.052-1.533.844-.741 1.307-1.753 1.3-2.849-.008-1.19-.568-2.35-1.538-3.182z"/>
    <path d="M50.107 23.712a1.01 1.01 0 0 0-1.411.255 1.024 1.024 0 0 0 .253 1.42c1.632 1.142 2.759 3.09 1.756 4.602-.686 1.035-2.321 1.894-4.483 2.357-1.181.253-2.39.385-3.665.52l-.166.017a79.31 79.31 0 0 0-1.892.214c-.217.029-.434.058-.65.09-.228.034-.457.065-.686.097l-.696.1c-1.334.197-2.666.446-3.803 1.019a5.581 5.581 0 0 0-1.135.747c-.97.834-1.53 1.993-1.536 3.182-.006 1.096.456 2.108 1.3 2.85.763.669 1.773 1.176 3.053 1.532.62-.483 1.458-.857 2.512-1.12l-.022-.468c-1.955-.246-3.369-.744-4.21-1.481-.398-.352-.608-.801-.605-1.302.003-.596.303-1.194.824-1.642.876-.752 2.23-1.044 3.72-1.27.289-.044.582-.086.878-.127l.7-.1c.118-.018.238-.033.356-.05.649-.087 1.31-.16 1.96-.228l.141-.015c1.228-.129 2.495-.264 3.734-.51l.308-.061c1.92-.41 4.475-1.304 5.747-3.22 1.526-2.297.566-5.413-2.282-7.408z"/>
    <path d="M123.289 14.156l.168.153v.934l-.15.133c-1.364.039-2.211.11-2.539.21-.328.101-.561.27-.697.504-.136.235-.215.695-.233 1.38-.019.686-.053 2.624-.103 5.81v8.784c0 1.27.019 2.705.056 4.305.037 1.6.114 2.532.233 2.791.118.26.332.451.641.571.31.12 1.192.2 2.642.239l.15.134v.933l-.168.153a94.92 94.92 0 0 0-5.284-.172c-1.018 0-2.748.057-5.191.172l-.168-.153v-.914l.15-.153c1.364-.038 2.211-.107 2.539-.21.328-.101.561-.27.697-.504.136-.235.217-.7.243-1.4.024-.698.056-2.629.093-5.79V18.081l-6.419 13.754a173.95 173.95 0 0 0-4.223 9.717H105a176.97 176.97 0 0 0-1.711-3.926L94.395 18.71v13.317c0 1.245.015 2.677.047 4.296.032 1.62.108 2.557.233 2.81.123.255.341.446.65.572.31.128 1.192.202 2.643.229l.149.153V41l-.168.172-1.191-.057a63.18 63.18 0 0 0-3.163-.096c-.397 0-1.879.05-4.446.153l-.15-.153v-.914l.15-.172c1.364-.025 2.207-.088 2.53-.191.322-.101.555-.273.697-.514.142-.24.224-.691.242-1.352.02-.66.047-2.61.084-5.848v-8.725c0-1.155-.014-2.563-.046-4.22-.032-1.657-.107-2.616-.224-2.877-.117-.26-.332-.455-.641-.58-.31-.127-1.192-.203-2.642-.23l-.15-.152v-.917l.168-.172c.856.063 2.01.096 3.46.096 1.366 0 2.555-.03 3.573-.096a156.913 156.913 0 0 0 2.996 6.688l7.052 14.822 6.363-13.584c1.725-3.67 2.884-6.312 3.479-7.926 1.191.063 2.362.096 3.516.096 1.041 0 2.268-.03 3.683-.096z"/>
    <path d="M125.688 14.233l.149-.133c4.255.076 6.977.114 8.169.114 4.068 0 7.689-.038 10.864-.114l.093.133c-.309 1.22-.539 3.131-.688 5.736l-.112.152h-.912l-.167-.152c.013-.115.018-.216.018-.306 0-1.078-.08-2.108-.242-3.087-.781-.355-1.865-.588-3.246-.695-1.383-.107-2.422-.162-3.116-.162-.98 0-2.231.07-3.758.21l-.075 3.047-.056 3.486-.056 3.869c1.339.076 2.573.114 3.703.114 1.141 0 2.096-.038 2.866-.114.768-.077 1.219-.155 1.348-.24.13-.081.229-.24.298-.475.067-.234.127-.65.177-1.248l.075-1.182.149-.153h.856l.149.153a455.571 455.571 0 0 1-.093 4.172l.093 4.286-.149.153h-.856l-.149-.153-.131-1.143c-.112-.89-.192-1.42-.242-1.59a.833.833 0 0 0-.345-.448c-.181-.126-.641-.229-1.385-.305-.744-.077-1.768-.115-3.069-.115-.72 0-1.818.033-3.293.096-.061 1.067-.093 2.845-.093 5.334 0 2.668.032 4.63.093 5.887h3.423c3.015 0 4.9-.038 5.655-.115a7.313 7.313 0 0 0 2.159-.552c.112-.292.295-.968.548-2.03.254-1.059.401-1.723.438-1.99l.187-.134h.893l.149.133c-.112.546-.22 1.5-.326 2.859a45.873 45.873 0 0 0-.159 3.486l-.13.153c-2.37-.077-5.47-.115-9.302-.115l-5.06-.038c-1.178 0-2.407.05-3.684.153l-.149-.153v-.628l.149-.191c.731-.382 1.15-.619 1.256-.714.105-.096.193-1.207.261-3.334s.103-3.75.103-4.867v-6.99l-.019-4.324c0-.94-.013-1.705-.037-2.295-.024-.59-.069-1.012-.13-1.268-.062-.254-.135-.431-.215-.533-.08-.1-.211-.187-.391-.257-.181-.071-.487-.13-.921-.182l-1.414-.114-.149-.134v-.953h-.002z"/>
    <path d="M148.162 14.232l.15-.133c2.146.1 3.609.152 4.39.152l8.707-.19c2.48 0 4.514.238 6.103.714 1.588.475 2.998 1.302 4.232 2.476a11.8 11.8 0 0 1 2.81 4.095c.637 1.556.958 3.218.958 4.982 0 1.714-.291 3.41-.874 5.086a14.914 14.914 0 0 1-2.484 4.506c-1.072 1.327-2.295 2.398-3.665 3.21-1.371.813-2.745 1.355-4.121 1.628a21.643 21.643 0 0 1-4.223.409c-.967 0-2.791-.038-5.47-.115a80.579 80.579 0 0 0-1.749-.038c-.856 0-1.892.05-3.106.153l-.149-.153v-.628l.149-.19c.731-.383 1.15-.62 1.257-.715.104-.096.192-1.207.261-3.334.067-2.127.102-3.75.102-4.866v-6.988l-.019-4.325c0-.94-.013-1.705-.037-2.295-.024-.59-.069-1.012-.13-1.268-.062-.254-.135-.431-.215-.533-.08-.1-.21-.187-.391-.257-.179-.07-.487-.13-.921-.182l-1.414-.114-.149-.134v-.953h-.002zm6.884 24.863c1.266.254 2.722.382 4.372.382 2.89 0 5.2-.494 6.93-1.485 1.73-.991 3.023-2.457 3.878-4.401.856-1.944 1.285-4.134 1.285-6.572 0-3.595-.936-6.383-2.81-8.365-1.872-1.982-4.825-2.973-8.856-2.973-1.661 0-3.263.129-4.799.382a149.866 149.866 0 0 0-.149 7.05v5.981l.037 5.602c0 1.09.037 2.559.112 4.4z"/>
    <path d="M178.189 14.1l2.325.076c1.526.051 2.525.076 2.997.076.421 0 2.202-.05 5.339-.152l.15.133v.953l-.15.134c-.855.024-1.515.063-1.982.114-.466.052-.803.147-1.014.287-.21.139-.35.465-.419.981-.069.514-.103 1.23-.103 2.144l-.037 4.382v8.82l.019 3.716c.013 1.436.048 2.362.111 2.782.062.42.151.7.271.839.117.139.345.257.678.353.336.095 1.16.168 2.475.22l.149.114v.953l-.149.152c-.062 0-1.155-.038-3.274-.114a78.78 78.78 0 0 0-2.066-.038c-.384 0-2.159.05-5.321.152l-.15-.152v-.953l.15-.115c1.154-.05 1.922-.114 2.306-.19.384-.077.641-.174.772-.297.13-.12.235-.378.317-.771.08-.393.127-1.27.14-2.63l.018-4.018V23.23l-.037-3.716c-.013-1.447-.047-2.38-.103-2.8-.056-.42-.143-.7-.261-.839-.117-.14-.345-.254-.678-.343-.336-.088-1.16-.159-2.474-.21l-.15-.134v-.955l.151-.133z"/>
</symbol><symbol id="icon-select-arrow" viewBox="0 0 20 20">
    <circle cx="10" cy="10" r="10"/>
    <path d="M10 14L6 7h8l-4 7z"/>
</symbol><symbol id="icon-visually-button" viewBox="0 0 270 40">
    <path d="M0 0h270v40H0z"/>
    <path d="M28.074 16.31c-.64 0-1.252.127-1.834.38a4.834 4.834 0 0 0-1.502 1.008 4.818 4.818 0 0 0-1.01 1.497 4.6 4.6 0 0 0 0 3.67 4.78 4.78 0 0 0 1.01 1.511c.418.418.919.749 1.502.994a4.677 4.677 0 0 0 1.834.369 4.687 4.687 0 0 0 4.1-2.333c.418-.72.627-1.514.627-2.381 0-1.294-.46-2.403-1.379-3.327-.919-.925-2.035-1.388-3.348-1.388zm0 7.857a3.084 3.084 0 0 1-1.576-.43 3.223 3.223 0 0 1-1.17-1.153 3.042 3.042 0 0 1-.43-1.584 3.158 3.158 0 0 1 .923-2.222 3.167 3.167 0 0 1 2.228-.92c.87 0 1.613.306 2.229.92.615.614.923 1.354.923 2.222 0 .867-.304 1.612-.911 2.234a2.98 2.98 0 0 1-2.216.933zm12.532-3.339a.201.201 0 0 0-.012-.061.2.2 0 0 1-.013-.062c0-.016-.004-.028-.012-.036l-.012-.013v-.024l-.025-.05c-1.116-2.57-2.807-4.587-5.072-6.052-2.265-1.465-4.735-2.197-7.41-2.197-1.757 0-3.448.319-5.073.957-1.625.639-3.098 1.584-4.42 2.836a13.608 13.608 0 0 0-3.114 4.456v.062l-.024.037v.073l-.025.05a1.475 1.475 0 0 0-.025.22c0 .033.004.066.013.099a.403.403 0 0 1 .012.098c0 .016.008.04.025.074v.049l.012.037.012.012v.073c1.133 2.57 2.836 4.58 5.11 6.028A13.59 13.59 0 0 0 28 29.667a13.81 13.81 0 0 0 5.06-.945c1.616-.63 3.081-1.567 4.395-2.811a13.254 13.254 0 0 0 3.077-4.445c.017 0 .025-.008.025-.024v-.037l.012-.024.012-.013v-.073l.025-.05c.017-.098.025-.171.025-.22a.402.402 0 0 0-.013-.099.403.403 0 0 1-.012-.098zM28 28.096c-2.33 0-4.49-.61-6.475-1.83-1.986-1.219-3.497-2.966-4.53-5.241 1.033-2.276 2.552-4.031 4.554-5.267 2.003-1.236 4.17-1.854 6.5-1.854 1.51 0 2.959.262 4.346.786s2.663 1.33 3.828 2.418c1.166 1.089 2.093 2.394 2.783 3.916-1.034 2.276-2.544 4.023-4.53 5.243A12.147 12.147 0 0 1 28 28.096z"/>
    <path d="M57.65 20.918c.448.215.803.523 1.064.924.27.401.406.863.406 1.386 0 .784-.275 1.442-.826 1.974-.55.532-1.223.798-2.016.798H52.05v-9.8h3.92c.765 0 1.414.257 1.946.77s.798 1.148.798 1.904c0 .868-.355 1.55-1.064 2.044zm-1.68-3.5h-2.618v2.996h2.618c.41 0 .756-.145 1.036-.434.28-.29.42-.644.42-1.064 0-.41-.145-.76-.434-1.05a1.348 1.348 0 0 0-1.022-.448zm.308 7.364a1.48 1.48 0 0 0 1.106-.462c.299-.308.448-.686.448-1.134 0-.439-.154-.812-.462-1.12a1.464 1.464 0 0 0-1.092-.462h-2.926v3.178h2.926zm5.687-.014h4.55V26h-5.852v-9.8h5.782v1.232h-4.48v3.01h4.13v1.218h-4.13v3.108zm9.678-8.568c.905 0 1.657.303 2.254.91.607.597.91 1.344.91 2.24 0 .887-.303 1.633-.91 2.24-.597.607-1.349.91-2.254.91H69.39V26h-1.302v-9.8h3.556zm0 5.082c.541 0 .99-.182 1.344-.546.355-.373.532-.835.532-1.386 0-.56-.177-1.022-.532-1.386-.355-.364-.803-.546-1.344-.546H69.39v3.864h2.254zm9.24 4.9c-1.484 0-2.712-.49-3.682-1.47-.962-.98-1.442-2.184-1.442-3.612s.48-2.632 1.442-3.612c.97-.98 2.198-1.47 3.682-1.47.896 0 1.717.215 2.464.644a4.635 4.635 0 0 1 1.764 1.736l-1.134.658a3.1 3.1 0 0 0-1.26-1.288 3.527 3.527 0 0 0-1.834-.49c-1.13 0-2.054.364-2.772 1.092-.71.728-1.064 1.638-1.064 2.73 0 1.083.354 1.988 1.064 2.716.718.728 1.642 1.092 2.772 1.092.672 0 1.283-.159 1.834-.476.56-.327.98-.756 1.26-1.288l1.134.644a4.633 4.633 0 0 1-1.75 1.75 4.932 4.932 0 0 1-2.478.644zM92.675 26v-7.308L87.635 26h-1.05v-9.8h1.302v7.322l5.04-7.322h1.05V26h-1.302zm9.992-9.8V26h-1.288v-3.752h-1.946L96.9 26h-1.47l2.604-3.836a2.942 2.942 0 0 1-1.666-1.064 2.911 2.911 0 0 1-.658-1.862c0-.84.294-1.554.882-2.142a2.94 2.94 0 0 1 2.156-.896h3.92zm-3.92 4.872h2.632v-3.654h-2.632c-.476 0-.886.177-1.232.532a1.779 1.779 0 0 0-.518 1.288c0 .504.173.938.518 1.302.346.355.756.532 1.232.532zm16.704 3.696h1.05v3.108h-1.302V26h-6.468v1.876h-1.302v-3.108h.854c.606-.756.91-1.904.91-3.444V16.2h6.258v8.568zm-5.698 0h4.396v-7.35h-3.654v3.934c0 1.484-.248 2.623-.742 3.416zM117.19 26v-1.176c.644.093 1.125-.084 1.442-.532.327-.457.49-1.302.49-2.534V16.2h6.468V26h-1.302v-8.568h-3.864v4.326c0 .877-.084 1.615-.252 2.212-.159.588-.392 1.031-.7 1.33a2.387 2.387 0 0 1-1.008.616c-.364.103-.789.13-1.274.084zm17.1-9.8V26h-1.288v-3.752h-1.946L128.522 26h-1.47l2.604-3.836a2.943 2.943 0 0 1-1.666-1.064 2.915 2.915 0 0 1-.658-1.862c0-.84.294-1.554.882-2.142a2.94 2.94 0 0 1 2.156-.896h3.92zm-3.92 4.872h2.632v-3.654h-2.632c-.476 0-.886.177-1.232.532a1.78 1.78 0 0 0-.518 1.288c0 .504.173.938.518 1.302.346.355.756.532 1.232.532zm14.128 5.11c-1.484 0-2.712-.49-3.682-1.47-.962-.98-1.442-2.184-1.442-3.612s.48-2.632 1.442-3.612c.97-.98 2.198-1.47 3.682-1.47.896 0 1.717.215 2.464.644a4.635 4.635 0 0 1 1.764 1.736l-1.134.658a3.1 3.1 0 0 0-1.26-1.288 3.528 3.528 0 0 0-1.834-.49c-1.13 0-2.054.364-2.772 1.092-.71.728-1.064 1.638-1.064 2.73 0 1.083.354 1.988 1.064 2.716.718.728 1.642 1.092 2.772 1.092.672 0 1.283-.159 1.834-.476.56-.327.98-.756 1.26-1.288l1.134.644a4.636 4.636 0 0 1-1.75 1.75 4.932 4.932 0 0 1-2.478.644zm4.643-.182v-1.176c.644.093 1.125-.084 1.442-.532.327-.457.49-1.302.49-2.534V16.2h6.468V26h-1.302v-8.568h-3.864v4.326c0 .877-.084 1.615-.252 2.212-.158.588-.392 1.031-.7 1.33a2.375 2.375 0 0 1-1.008.616c-.364.103-.788.13-1.274.084zm16.961 0l-.798-2.198h-4.41L160.096 26h-1.386l3.654-9.8h1.47l3.654 9.8h-1.386zm-4.76-3.416h3.514l-1.764-4.83-1.75 4.83zm10.984-2.534c.849 0 1.568.29 2.156.868.588.57.882 1.27.882 2.1 0 .85-.294 1.559-.882 2.128-.579.57-1.298.854-2.156.854h-3.682v-9.8h5.88v1.232h-4.578v2.618h2.38zm0 4.732c.485 0 .896-.168 1.232-.504.345-.336.518-.756.518-1.26 0-.495-.173-.91-.518-1.246a1.676 1.676 0 0 0-1.232-.504h-2.38v3.514h2.38zm12.587-.084c-.98.99-2.179 1.484-3.598 1.484s-2.618-.495-3.598-1.484c-.98-.99-1.47-2.189-1.47-3.598 0-1.419.49-2.618 1.47-3.598.98-.99 2.179-1.484 3.598-1.484s2.618.495 3.598 1.484c.989.98 1.484 2.18 1.484 3.598 0 1.41-.495 2.609-1.484 3.598zm-6.3-.882c.728.728 1.629 1.092 2.702 1.092s1.969-.364 2.688-1.092c.728-.737 1.092-1.643 1.092-2.716 0-1.083-.364-1.988-1.092-2.716-.719-.737-1.615-1.106-2.688-1.106-1.073 0-1.974.369-2.702 1.106-.719.728-1.078 1.633-1.078 2.716 0 1.073.359 1.979 1.078 2.716zm14.949-2.898c.448.215.803.523 1.064.924.271.401.406.863.406 1.386 0 .784-.275 1.442-.826 1.974-.551.532-1.223.798-2.016.798h-4.228v-9.8h3.92c.765 0 1.414.257 1.946.77s.798 1.148.798 1.904c0 .868-.355 1.55-1.064 2.044zm-1.68-3.5h-2.618v2.996h2.618c.411 0 .756-.145 1.036-.434.28-.29.42-.644.42-1.064 0-.41-.145-.76-.434-1.05a1.349 1.349 0 0 0-1.022-.448zm.308 7.364a1.48 1.48 0 0 0 1.106-.462c.299-.308.448-.686.448-1.134 0-.439-.154-.812-.462-1.12a1.464 1.464 0 0 0-1.092-.462h-2.926v3.178h2.926zM202.665 26v-7.308L197.625 26h-1.05v-9.8h1.302v7.322l5.04-7.322h1.05V26h-1.302zm10.581-1.232h1.05v3.108h-1.302V26h-6.468v1.876h-1.302v-3.108h.854c.606-.756.91-1.904.91-3.444V16.2h6.258v8.568zm-5.698 0h4.396v-7.35h-3.654v3.934c0 1.484-.248 2.623-.742 3.416zm14.844-8.568V26h-1.288v-3.752h-1.946L216.624 26h-1.47l2.604-3.836a2.943 2.943 0 0 1-1.666-1.064 2.909 2.909 0 0 1-.658-1.862c0-.84.294-1.554.882-2.142a2.939 2.939 0 0 1 2.156-.896h3.92zm-3.92 4.872h2.632v-3.654h-2.632a1.66 1.66 0 0 0-1.232.532 1.78 1.78 0 0 0-.518 1.288c0 .504.173.938.518 1.302a1.66 1.66 0 0 0 1.232.532zm17.193 3.696h1.05v3.108h-1.302V26h-10.92v-9.8h1.302v8.568h3.64V16.2h1.288v8.568h3.64V16.2h1.302v8.568zM244.31 26v-7.308L239.27 26h-1.05v-9.8h1.302v7.322l5.04-7.322h1.05V26h-1.302zm10.37 0h-1.484l-2.408-3.864L248.38 26h-1.47l3.15-5.04-2.968-4.76h1.47l2.226 3.57 2.226-3.57h1.47l-2.954 4.746L254.68 26z"/>
</symbol><symbol id="icon-vk" viewBox="0 0 24 14">
    <path fill-rule="evenodd" clip-rule="evenodd" d="M21.362 9.758s1.94 1.916 2.42 2.803a.15.15 0 0 1 .022.042c.196.328.244.584.148.774-.162.313-.71.47-.896.483h-3.43c-.239 0-.736-.062-1.34-.48-.462-.322-.922-.854-1.367-1.373-.665-.772-1.24-1.442-1.822-1.442a.656.656 0 0 0-.216.036c-.44.14-1 .767-1 2.439 0 .523-.412.82-.701.82h-1.571c-.535 0-3.322-.187-5.793-2.792C2.79 7.878.07 1.48.043 1.424c-.169-.414.186-.64.57-.64h3.463c.465 0 .616.28.722.533.122.29.576 1.446 1.32 2.745 1.204 2.115 1.945 2.975 2.536 2.975.112 0 .22-.028.317-.084.773-.425.629-3.185.593-3.753 0-.11-.001-1.233-.397-1.775C8.884 1.036 8.4.885 8.11.83c.078-.113.243-.286.456-.388C9.095.178 10.05.14 11 .14h.527c1.03.014 1.296.08 1.67.175.754.18.769.668.703 2.331-.02.476-.04 1.01-.04 1.64 0 .135-.006.285-.006.438-.023.853-.053 1.814.55 2.209a.492.492 0 0 0 .26.074c.209 0 .834 0 2.53-2.91.744-1.285 1.32-2.8 1.36-2.915.033-.063.134-.242.256-.314a.575.575 0 0 1 .283-.067h4.074c.444 0 .745.067.804.235.099.272-.019 1.104-1.879 3.62-.313.418-.588.78-.83 1.097-1.685 2.213-1.685 2.325.1 4.005z"/>
</symbol><symbol id="icon-you" viewBox="0 0 22 16">
    <path d="M21.058 2.945a2.625 2.625 0 0 0-1.853-1.852C17.57.65 11 .65 11 .65s-6.57 0-8.205.443A2.625 2.625 0 0 0 .942 2.945 27.097 27.097 0 0 0 .5 8c-.011 1.695.137 3.388.442 5.055a2.625 2.625 0 0 0 1.853 1.853C4.43 15.35 11 15.35 11 15.35s6.57 0 8.205-.442a2.625 2.625 0 0 0 1.853-1.853A27.1 27.1 0 0 0 21.5 8a27.1 27.1 0 0 0-.442-5.055zM8.9 11.15v-6.3L14.352 8 8.9 11.15z"/>
</symbol></svg>